<?xml version="1.0" encoding="UTF-8" standalone="no"?>
<!-- Generator: Adobe Illustrator 18.0.0, SVG Export Plug-In . SVG Version: 6.00 Build 0)  -->

<svg
   xmlns:dc="http://purl.org/dc/elements/1.1/"
   xmlns:cc="http://creativecommons.org/ns#"
   xmlns:rdf="http://www.w3.org/1999/02/22-rdf-syntax-ns#"
   xmlns:svg="http://www.w3.org/2000/svg"
   xmlns="http://www.w3.org/2000/svg"
   xmlns:sodipodi="http://sodipodi.sourceforge.net/DTD/sodipodi-0.dtd"
   xmlns:inkscape="http://www.inkscape.org/namespaces/inkscape"
   version="1.1"
   id="Capa_1"
   x="0px"
   y="0px"
   viewBox="0 0 52.502 52.502"
   style="enable-background:new 0 0 52.502 52.502;"
   xml:space="preserve"
   sodipodi:docname="back.svg"
   inkscape:version="0.92.3 (2405546, 2018-03-11)"><metadata
   id="metadata1206"><rdf:RDF><cc:Work
       rdf:about=""><dc:format>image/svg+xml</dc:format><dc:type
         rdf:resource="http://purl.org/dc/dcmitype/StillImage" /></cc:Work></rdf:RDF></metadata><defs
   id="defs1204">
	
	
</defs><sodipodi:namedview
   pagecolor="#ffffff"
   bordercolor="#666666"
   borderopacity="1"
   objecttolerance="10"
   gridtolerance="10"
   guidetolerance="10"
   inkscape:pageopacity="0"
   inkscape:pageshadow="2"
   inkscape:window-width="702"
   inkscape:window-height="480"
   id="namedview1202"
   showgrid="false"
   inkscape:zoom="0.56188337"
   inkscape:cx="86.294374"
   inkscape:cy="106.80016"
   inkscape:window-x="67"
   inkscape:window-y="27"
   inkscape:window-maximized="0"
   inkscape:current-layer="Capa_1" />
<path
   inkscape:connector-curvature="0"
   id="path1165"
   d="M 21.524,16.094 V 4.046 L 1.416,23.998 21.524,44.141 V 32.094 c 0,0 17.598,-4.355 29.712,16 0,0 3.02,-15.536 -10.51,-26.794 10e-4,-0.001 -5.991,-5.604 -19.202,-5.206 z"
   style="fill:#2196f3;fill-opacity:1" /><path
   inkscape:connector-curvature="0"
   id="path1167"
   d="M 51.718,50.857 50.377,48.605 C 40.163,31.441 25.976,32.402 22.524,32.925 V 46.559 L 0,23.995 22.524,1.644 v 13.431 c 12.728,-0.103 18.644,5.268 18.886,5.494 13.781,11.465 10.839,27.554 10.808,27.715 z M 25.645,30.702 c 5.761,0 16.344,1.938 24.854,14.376 C 50.627,40.205 49.603,29.984 40.089,22.068 39.99,21.98 34.107,16.695 21.556,17.093 l -1.03,0.03 V 6.447 L 2.832,24.001 20.524,41.725 V 31.311 l 0.76,-0.188 c 0.07,-0.018 1.73,-0.421 4.361,-0.421 z"
   style="fill:#000000;fill-opacity:0" />
<g
   id="g1171">
</g>
<g
   id="g1173">
</g>
<g
   id="g1175">
</g>
<g
   id="g1177">
</g>
<g
   id="g1179">
</g>
<g
   id="g1181">
</g>
<g
   id="g1183">
</g>
<g
   id="g1185">
</g>
<g
   id="g1187">
</g>
<g
   id="g1189">
</g>
<g
   id="g1191">
</g>
<g
   id="g1193">
</g>
<g
   id="g1195">
</g>
<g
   id="g1197">
</g>
<g
   id="g1199">
</g>
</svg>