<?xml version="1.0" encoding="UTF-8" standalone="no"?>
<!-- Generator: Adobe Illustrator 18.0.0, SVG Export Plug-In . SVG Version: 6.00 Build 0)  -->

<svg
   xmlns:dc="http://purl.org/dc/elements/1.1/"
   xmlns:cc="http://creativecommons.org/ns#"
   xmlns:rdf="http://www.w3.org/1999/02/22-rdf-syntax-ns#"
   xmlns:svg="http://www.w3.org/2000/svg"
   xmlns="http://www.w3.org/2000/svg"
   xmlns:sodipodi="http://sodipodi.sourceforge.net/DTD/sodipodi-0.dtd"
   xmlns:inkscape="http://www.inkscape.org/namespaces/inkscape"
   version="1.1"
   id="Capa_1"
   x="0px"
   y="0px"
   viewBox="0 0 54 54"
   style="enable-background:new 0 0 54 54;"
   xml:space="preserve"
   sodipodi:docname="import_dis.svg"
   inkscape:version="0.92.3 (2405546, 2018-03-11)"><metadata
   id="metadata57"><rdf:RDF><cc:Work
       rdf:about=""><dc:format>image/svg+xml</dc:format><dc:type
         rdf:resource="http://purl.org/dc/dcmitype/StillImage" /><dc:title></dc:title></cc:Work></rdf:RDF></metadata><defs
   id="defs55">
	
	
	
	
	
	
	
</defs><sodipodi:namedview
   pagecolor="#ffffff"
   bordercolor="#666666"
   borderopacity="1"
   objecttolerance="10"
   gridtolerance="10"
   guidetolerance="10"
   inkscape:pageopacity="0"
   inkscape:pageshadow="2"
   inkscape:window-width="647"
   inkscape:window-height="480"
   id="namedview53"
   showgrid="false"
   inkscape:zoom="4.3703704"
   inkscape:cx="27"
   inkscape:cy="27"
   inkscape:window-x="0"
   inkscape:window-y="0"
   inkscape:window-maximized="0"
   inkscape:current-layer="Capa_1" />
<g
   style="fill:#cccccc"
   id="g6">
		<circle
   id="circle2"
   r="23"
   cy="27"
   cx="24"
   style="fill:#cccccc" />
		<path
   inkscape:connector-curvature="0"
   id="path4"
   d="M 24,51 C 10.767,51 0,40.233 0,27 0,13.767 10.767,3 24,3 37.233,3 48,13.767 48,27 48,40.233 37.233,51 24,51 Z M 24,5 C 11.869,5 2,14.869 2,27 2,39.131 11.869,49 24,49 36.131,49 46,39.131 46,27 46,14.869 36.131,5 24,5 Z"
   style="fill:#cccccc" />
	</g><path
   inkscape:connector-curvature="0"
   id="path8"
   d="M 53,39 H 22 c -0.553,0 -1,-0.447 -1,-1 0,-0.553 0.447,-1 1,-1 h 31 c 0.553,0 1,0.447 1,1 0,0.553 -0.447,1 -1,1 z"
   style="fill:#999999" /><path
   inkscape:connector-curvature="0"
   id="path10"
   d="m 28,45 c -0.256,0 -0.512,-0.098 -0.707,-0.293 l -6,-6 c -0.391,-0.391 -0.391,-1.023 0,-1.414 0.391,-0.391 1.023,-0.391 1.414,0 l 6,6 c 0.391,0.391 0.391,1.023 0,1.414 C 28.512,44.902 28.256,45 28,45 Z"
   style="fill:#999999" /><path
   inkscape:connector-curvature="0"
   id="path12"
   d="m 22,39 c -0.256,0 -0.512,-0.098 -0.707,-0.293 -0.391,-0.391 -0.391,-1.023 0,-1.414 l 6,-6 c 0.391,-0.391 1.023,-0.391 1.414,0 0.391,0.391 0.391,1.023 0,1.414 l -6,6 C 22.512,38.902 22.256,39 22,39 Z"
   style="fill:#999999" /><path
   inkscape:connector-curvature="0"
   id="path14"
   d="M 53,19 H 22 c -0.553,0 -1,-0.447 -1,-1 0,-0.553 0.447,-1 1,-1 h 31 c 0.553,0 1,0.447 1,1 0,0.553 -0.447,1 -1,1 z"
   style="fill:#999999" /><path
   inkscape:connector-curvature="0"
   id="path16"
   d="m 28,25 c -0.256,0 -0.512,-0.098 -0.707,-0.293 l -6,-6 c -0.391,-0.391 -0.391,-1.023 0,-1.414 0.391,-0.391 1.023,-0.391 1.414,0 l 6,6 c 0.391,0.391 0.391,1.023 0,1.414 C 28.512,24.902 28.256,25 28,25 Z"
   style="fill:#999999" /><path
   inkscape:connector-curvature="0"
   id="path18"
   d="m 22,19 c -0.256,0 -0.512,-0.098 -0.707,-0.293 -0.391,-0.391 -0.391,-1.023 0,-1.414 l 6,-6 c 0.391,-0.391 1.023,-0.391 1.414,0 0.391,0.391 0.391,1.023 0,1.414 l -6,6 C 22.512,18.902 22.256,19 22,19 Z"
   style="fill:#999999" />
<g
   id="g22">
</g>
<g
   id="g24">
</g>
<g
   id="g26">
</g>
<g
   id="g28">
</g>
<g
   id="g30">
</g>
<g
   id="g32">
</g>
<g
   id="g34">
</g>
<g
   id="g36">
</g>
<g
   id="g38">
</g>
<g
   id="g40">
</g>
<g
   id="g42">
</g>
<g
   id="g44">
</g>
<g
   id="g46">
</g>
<g
   id="g48">
</g>
<g
   id="g50">
</g>
</svg>