<?xml version="1.0" encoding="UTF-8" standalone="no"?>
<!-- Generator: Adobe Illustrator 19.0.0, SVG Export Plug-In . SVG Version: 6.00 Build 0)  -->

<svg
   xmlns:dc="http://purl.org/dc/elements/1.1/"
   xmlns:cc="http://creativecommons.org/ns#"
   xmlns:rdf="http://www.w3.org/1999/02/22-rdf-syntax-ns#"
   xmlns:svg="http://www.w3.org/2000/svg"
   xmlns="http://www.w3.org/2000/svg"
   xmlns:sodipodi="http://sodipodi.sourceforge.net/DTD/sodipodi-0.dtd"
   xmlns:inkscape="http://www.inkscape.org/namespaces/inkscape"
   version="1.1"
   id="Layer_1"
   x="0px"
   y="0px"
   viewBox="0 0 512.031 512.031"
   style="enable-background:new 0 0 512.031 512.031;"
   xml:space="preserve"
   sodipodi:docname="information.svg"
   inkscape:version="0.92.3 (2405546, 2018-03-11)"><metadata
   id="metadata47"><rdf:RDF><cc:Work
       rdf:about=""><dc:format>image/svg+xml</dc:format><dc:type
         rdf:resource="http://purl.org/dc/dcmitype/StillImage" /></cc:Work></rdf:RDF></metadata><defs
   id="defs45">
	
	
<linearGradient
   gradientTransform="matrix(0.50257958,0,0,0.50257958,118.95137,110.88091)"
   y2="256.00018"
   y1="256.00018"
   x2="511.94977"
   x1="-0.00022809239"
   gradientUnits="userSpaceOnUse"
   id="a"><stop
     id="stop4539"
     stop-color="#87f1fc"
     offset="0" /><stop
     id="stop4541"
     stop-color="#7fd4fb"
     offset=".2557" /><stop
     id="stop4543"
     stop-color="#78bcfb"
     offset=".5295" /><stop
     id="stop4545"
     stop-color="#74aefa"
     offset=".7844" /><stop
     id="stop4547"
     stop-color="#73a9fa"
     offset="1" /></linearGradient><clipPath
   id="clipPath1273"
   clipPathUnits="userSpaceOnUse"><path
     inkscape:connector-curvature="0"
     id="path1275"
     d="M 0.3735352,0.38232426 V 164.51808 511.62603 H 220.87649 511.15435 V 164.51808 H 220.87649 V 0.38232426 Z"
     style="fill:#987182;fill-opacity:1;stroke:#7d2e5f;stroke-width:0.74762738;stroke-opacity:1" /></clipPath></defs><sodipodi:namedview
   pagecolor="#ffffff"
   bordercolor="#666666"
   borderopacity="1"
   objecttolerance="10"
   gridtolerance="10"
   guidetolerance="10"
   inkscape:pageopacity="0"
   inkscape:pageshadow="2"
   inkscape:window-width="1321"
   inkscape:window-height="480"
   id="namedview43"
   showgrid="false"
   inkscape:zoom="0.46090959"
   inkscape:cx="-131.26219"
   inkscape:cy="256.0155"
   inkscape:window-x="368"
   inkscape:window-y="156"
   inkscape:window-maximized="0"
   inkscape:current-layer="Layer_1" />
<path
   inkscape:connector-curvature="0"
   id="path2"
   d="M 335.464,0 H 176.567 C 113.185,0 61.809,51.377 61.809,114.759 v 158.897 c 0,63.382 51.377,114.759 114.759,114.759 h 28.999 c 13.233,0 23.967,10.734 23.967,23.967 v 87.314 c 0,12.014 15.439,16.914 22.369,7.106 l 54.299,-76.932 c 15.819,-22.404 38.718,-38.577 64.794,-47.06 45.992,-14.963 79.228,-58.174 79.228,-109.153 V 114.759 C 450.223,51.377 398.846,0 335.464,0"
   style="fill:#2196f3;fill-opacity:1" /><g
   style="fill:#ffffff"
   id="g8">
		<path
   inkscape:connector-curvature="0"
   id="path4"
   d="M 282.498,300.138 V 176.552 158.941 c 0,-9.772 -7.927,-17.699 -17.699,-17.699 h -35.266 c -9.755,0 -17.655,7.901 -17.655,17.655 0,9.754 7.901,17.655 17.655,17.655 h 17.655 v 123.586 h -17.655 c -9.755,0 -17.655,7.901 -17.655,17.655 0,9.754 7.901,17.655 17.655,17.655 h 70.621 c 9.754,0 17.655,-7.901 17.655,-17.655 0,-9.754 -7.901,-17.655 -17.655,-17.655 z"
   style="fill:#ffffff" />
		<path
   inkscape:connector-curvature="0"
   id="path6"
   d="m 282.498,79.448 c 0,-14.627 -11.855,-26.483 -26.483,-26.483 -14.628,0 -26.483,11.855 -26.483,26.483 0,14.628 11.855,26.483 26.483,26.483 14.628,0 26.483,-11.855 26.483,-26.483"
   style="fill:#ffffff" />
	</g>
<g
   id="g12">
</g>
<g
   id="g14">
</g>
<g
   id="g16">
</g>
<g
   id="g18">
</g>
<g
   id="g20">
</g>
<g
   id="g22">
</g>
<g
   id="g24">
</g>
<g
   id="g26">
</g>
<g
   id="g28">
</g>
<g
   id="g30">
</g>
<g
   id="g32">
</g>
<g
   id="g34">
</g>
<g
   id="g36">
</g>
<g
   id="g38">
</g>
<g
   id="g40">
</g>
</svg>