<?xml version="1.0" encoding="UTF-8" standalone="no"?>
<!-- Generator: Adobe Illustrator 19.0.0, SVG Export Plug-In . SVG Version: 6.00 Build 0)  -->

<svg
   xmlns:dc="http://purl.org/dc/elements/1.1/"
   xmlns:cc="http://creativecommons.org/ns#"
   xmlns:rdf="http://www.w3.org/1999/02/22-rdf-syntax-ns#"
   xmlns:svg="http://www.w3.org/2000/svg"
   xmlns="http://www.w3.org/2000/svg"
   xmlns:sodipodi="http://sodipodi.sourceforge.net/DTD/sodipodi-0.dtd"
   xmlns:inkscape="http://www.inkscape.org/namespaces/inkscape"
   version="1.1"
   id="Capa_1"
   x="0px"
   y="0px"
   viewBox="0 0 58 58"
   style="enable-background:new 0 0 58 58;"
   xml:space="preserve"
   sodipodi:docname="shuffleinibica.svg"
   inkscape:version="0.92.3 (2405546, 2018-03-11)"><metadata
   id="metadata53"><rdf:RDF><cc:Work
       rdf:about=""><dc:format>image/svg+xml</dc:format><dc:type
         rdf:resource="http://purl.org/dc/dcmitype/StillImage" /><dc:title /></cc:Work></rdf:RDF></metadata><defs
   id="defs51"><linearGradient
     gradientTransform="matrix(0.50257958,0,0,0.50257958,118.95137,110.88091)"
     y2="256.0001905256"
     y1="256.0001905256"
     x2="511.9497771512"
     x1="-.0002280924"
     gradientUnits="userSpaceOnUse"
     id="a"><stop
       id="stop4539"
       stop-color="#87f1fc"
       offset="0" /><stop
       id="stop4541"
       stop-color="#7fd4fb"
       offset=".2557" /><stop
       id="stop4543"
       stop-color="#78bcfb"
       offset=".5295" /><stop
       id="stop4545"
       stop-color="#74aefa"
       offset=".7844" /><stop
       id="stop4547"
       stop-color="#73a9fa"
       offset="1" /></linearGradient></defs><sodipodi:namedview
   pagecolor="#ffffff"
   bordercolor="#666666"
   borderopacity="1"
   objecttolerance="10"
   gridtolerance="10"
   guidetolerance="10"
   inkscape:pageopacity="0"
   inkscape:pageshadow="2"
   inkscape:window-width="1853"
   inkscape:window-height="1025"
   id="namedview49"
   showgrid="false"
   inkscape:zoom="4.0384331"
   inkscape:cx="59.683211"
   inkscape:cy="-18.194184"
   inkscape:window-x="67"
   inkscape:window-y="27"
   inkscape:window-maximized="1"
   inkscape:current-layer="Capa_1" />
<circle
   style="fill:#7d2e52;fill-opacity:1"
   cx="29"
   cy="29"
   r="29"
   id="circle2" />





















<g
   id="g865"
   transform="matrix(0.76055537,0,0,0.76055537,6.7917832,6.9441586)"><path
     id="path4"
     d="m 12,43 c -1.104,0 -2,-0.896 -2,-2 0,-1.104 0.896,-2 2,-2 5.514,0 10,-4.486 10,-10 0,-1.104 0.896,-2 2,-2 1.104,0 2,0.896 2,2 0,7.72 -6.28,14 -14,14 z"
     style="fill:#ffffff"
     inkscape:connector-curvature="0" /><path
     id="path6"
     d="m 24,31 c -1.104,0 -2,-0.896 -2,-2 0,-7.72 6.28,-14 14,-14 h 10 c 1.104,0 2,0.896 2,2 0,1.104 -0.896,2 -2,2 H 36 c -5.514,0 -10,4.486 -10,10 0,1.104 -0.896,2 -2,2 z"
     style="fill:#ffffff"
     inkscape:connector-curvature="0" /><path
     id="path8"
     d="M 46,43 H 36 C 32.584,43 29.294,41.758 26.737,39.502 25.909,38.771 25.83,37.507 26.56,36.679 27.29,35.851 28.556,35.772 29.383,36.502 31.209,38.113 33.56,39 36,39 h 10 c 1.104,0 2,0.896 2,2 0,1.104 -0.896,2 -2,2 z"
     style="fill:#ffffff"
     inkscape:connector-curvature="0" /><path
     id="path10"
     d="m 20.002,22.054 c -0.475,0 -0.951,-0.168 -1.333,-0.51 C 16.836,19.903 14.467,19 12,19 H 10 C 8.896,19 8,18.104 8,17 8,15.896 8.896,15 10,15 h 2 c 3.452,0 6.769,1.266 9.337,3.563 0.822,0.736 0.893,2.001 0.156,2.824 -0.394,0.442 -0.941,0.667 -1.491,0.667 z"
     style="fill:#ffffff"
     inkscape:connector-curvature="0" /><path
     id="path12"
     d="M 12,43 H 10 C 8.896,43 8,42.104 8,41 8,39.896 8.896,39 10,39 h 2 c 1.104,0 2,0.896 2,2 0,1.104 -0.896,2 -2,2 z"
     style="fill:#ffffff"
     inkscape:connector-curvature="0" /><path
     id="path14"
     d="m 36.002,27 c -0.618,0 -1.228,-0.285 -1.619,-0.823 -0.65,-0.894 -0.452,-2.145 0.44,-2.794 L 43.6,17 34.824,10.617 c -0.893,-0.649 -1.091,-1.9 -0.44,-2.794 0.648,-0.892 1.899,-1.092 2.794,-0.44 L 50.4,17 37.176,26.617 C 36.821,26.876 36.409,27 36.002,27 Z"
     style="fill:#ffffff"
     inkscape:connector-curvature="0" /><path
     id="path16"
     d="m 36.002,51 c -0.618,0 -1.228,-0.285 -1.619,-0.823 -0.65,-0.894 -0.452,-2.145 0.44,-2.794 L 43.6,41 34.824,34.617 c -0.893,-0.649 -1.091,-1.9 -0.44,-2.794 0.648,-0.893 1.899,-1.091 2.794,-0.44 L 50.4,41 37.176,50.617 C 36.821,50.876 36.409,51 36.002,51 Z"
     style="fill:#ffffff"
     inkscape:connector-curvature="0" /><g
     id="g18">
</g><g
     id="g20">
</g><g
     id="g22">
</g><g
     id="g24">
</g><g
     id="g26">
</g><g
     id="g28">
</g><g
     id="g30">
</g><g
     id="g32">
</g><g
     id="g34">
</g><g
     id="g36">
</g><g
     id="g38">
</g><g
     id="g40">
</g><g
     id="g42">
</g><g
     id="g44">
</g><g
     id="g46">
</g></g>
</svg>